# xmcd CD database file
#
# Track frame offsets:
#	150
#	21526
#	42667
#	55068
#	73810
#	94989
#	116483
#	134706
#	155414
#	176527
#	198384
#	221566
#	240278
#
# Disc length: 3468 seconds
#
# Revision: 0
# Processed by: cddbd v1.5.2PL0 Copyright (c) Steve Scherf et al.
# Submitted via: CDex 1.50
#
DISCID=c20d8a0d
DTITLE=Elmore D - Grandiveûs
DYEAR=2008
DGENRE=Blues
TTITLE0=Li rawète
TTITLE1=A cavaye lès bèrlinås
TTITLE2=Hey twè, gueûye d'amoûr
TTITLE3=Has di coûr
TTITLE4=Li batème
TTITLE5=Ine pitite fricassèye
TTITLE6=Li diérin blues d'à Johnson
TTITLE7=Li hokum dè G.B.
TTITLE8=Bondjoû Wallonîye
TTITLE9=Fans 'ne tchanson
TTITLE10=Ç' trin-là
TTITLE11=Tchanson po l'måva timps
TTITLE12=Blues po fé 'ne fin
EXTD=YEAR: 2008
EXTT0=
EXTT1=
EXTT2=
EXTT3=
EXTT4=
EXTT5=
EXTT6=
EXTT7=
EXTT8=
EXTT9=
EXTT10=
EXTT11=
EXTT12=
PLAYORDER=
